<svg xmlns="http://www.w3.org/2000/svg" xmlns:xlink="http://www.w3.org/1999/xlink" viewBox="0 0 73.57 73.57"><defs><style>.cls-1{fill:url(#Dégradé_sans_nom_17);}.cls-2{fill:#fff;}</style><linearGradient id="Dégradé_sans_nom_17" x1="-2440.8" y1="11693.3" x2="-2373.23" y2="11693.3" gradientTransform="translate(11730.08 2443.8) rotate(90)" gradientUnits="userSpaceOnUse"><stop offset="0" stop-color="#f39669"/><stop offset="0.16" stop-color="#f18469"/><stop offset="0.51" stop-color="#ec6268"/><stop offset="0.81" stop-color="#e94e67"/><stop offset="1" stop-color="#e84667"/></linearGradient></defs><title>Fichier 2</title><g id="Calque_2" data-name="Calque 2"><g id="P1-Viewport1"><path class="cls-1" d="M36.7,70.57a8.83,8.83,0,0,1-6.32-2.64L5.59,43a8.92,8.92,0,0,1,0-12.61l25-24.79a8.92,8.92,0,0,1,12.61,0L68,30.58a8.91,8.91,0,0,1,0,12.61L43,68A8.86,8.86,0,0,1,36.7,70.57Z"/><path class="cls-2" d="M36.87,6a5.86,5.86,0,0,1,4.19,1.75L65.85,32.69a5.91,5.91,0,0,1,0,8.37L40.88,65.85a5.93,5.93,0,0,1-8.38,0L7.72,40.88a5.93,5.93,0,0,1,0-8.38L32.69,7.72A5.89,5.89,0,0,1,36.87,6m0-6a11.9,11.9,0,0,0-8.4,3.46L3.52,28.25A11.91,11.91,0,0,0,3.46,45.1L28.25,70.05a11.9,11.9,0,0,0,16.85,0L70.05,45.32a11.92,11.92,0,0,0,0-16.86L45.32,3.52A11.86,11.86,0,0,0,36.86,0Z"/></g></g></svg>