<svg xmlns="http://www.w3.org/2000/svg" viewBox="0 0 36.89 30.36"><defs><style>.cls-1{fill:#2e4057;}</style></defs><title>button-TWITTER</title><g id="Calque_2" data-name="Calque 2"><g id="footer"><path id="button-TWITTER" class="cls-1" d="M36.74,3.64A15.14,15.14,0,0,1,33,4.7c.6-.1,1.48-1.18,1.83-1.62A6.85,6.85,0,0,0,36.08.82c0-.07.06-.15,0-.2a.21.21,0,0,0-.19,0,18.58,18.58,0,0,1-4.43,1.69.27.27,0,0,1-.3-.08,3.59,3.59,0,0,0-.39-.39A7.88,7.88,0,0,0,28.62.54,7.4,7.4,0,0,0,25.33,0,7.77,7.77,0,0,0,22.21.9,7.9,7.9,0,0,0,19.7,3a7.62,7.62,0,0,0-1.5,3,8.11,8.11,0,0,0-.08,3.18c0,.17,0,.2-.16.17-6.07-.9-11.11-3.08-15.2-7.73-.17-.21-.27-.21-.41,0-1.79,2.68-.93,7,1.31,9.11.3.28.6.56.93.82a7.75,7.75,0,0,1-2.93-.82c-.18-.11-.27,0-.28.15a4.32,4.32,0,0,0,.05.87,7.8,7.8,0,0,0,4.8,6.22,4.71,4.71,0,0,0,1,.29,8.64,8.64,0,0,1-2.87.09c-.21,0-.29.07-.21.27,1.26,3.45,4,4.48,6,5.06.28.05.55.05.82.11,0,0,0,0,0,0-.68,1-3,1.81-4.13,2.19a14.68,14.68,0,0,1-6.27.8c-.34-.05-.41-.05-.5,0s0,.14.1.23c.42.28.86.53,1.3.77a21.08,21.08,0,0,0,4.19,1.68c7.53,2.08,16,.55,21.67-5.07,4.44-4.41,6-10.5,6-16.59,0-.24.28-.37.45-.49a15.08,15.08,0,0,0,3-3.07.94.94,0,0,0,.19-.59v0C36.89,3.54,36.89,3.57,36.74,3.64Z"/></g></g></svg>