<svg xmlns="http://www.w3.org/2000/svg" viewBox="0 0 36.89 36.89"><defs><style>.cls-1{fill:#2e4057;}</style></defs><title>button-INSTAGRAM</title><g id="Calque_2" data-name="Calque 2"><g id="footer"><g id="button-INSTAGRAM"><path class="cls-1" d="M28.21,6.59a2.16,2.16,0,1,0,2.17,2.16A2.16,2.16,0,0,0,28.21,6.59Z"/><path class="cls-1" d="M18.6,9.36a9.09,9.09,0,1,0,9.08,9.09A9.1,9.1,0,0,0,18.6,9.36Zm0,14.91a5.82,5.82,0,1,1,5.82-5.82A5.83,5.83,0,0,1,18.6,24.27Z"/><path class="cls-1" d="M25.81,36.89H11.08A11.09,11.09,0,0,1,0,25.81V11.08A11.09,11.09,0,0,1,11.08,0H25.81A11.09,11.09,0,0,1,36.89,11.08V25.81A11.09,11.09,0,0,1,25.81,36.89ZM11.08,3.47a7.61,7.61,0,0,0-7.61,7.61V25.81a7.61,7.61,0,0,0,7.61,7.61H25.81a7.61,7.61,0,0,0,7.61-7.61V11.08a7.61,7.61,0,0,0-7.61-7.61Z"/></g></g></g></svg>