<svg xmlns="http://www.w3.org/2000/svg" viewBox="0 0 213.32 213.32"><defs><style>.cls-1{opacity:0.1;}.cls-2{fill:#f4abba;}</style></defs><title>Fichier 17</title><g id="Calque_2" data-name="Calque 2"><g id="P1-Viewport3"><g class="cls-1"><path class="cls-2" d="M163.32,2a48.05,48.05,0,0,1,48,48V163.32a48.05,48.05,0,0,1-48,48H50a48.05,48.05,0,0,1-48-48V50A48.05,48.05,0,0,1,50,2H163.32m0-2H50A50,50,0,0,0,0,50V163.32a50,50,0,0,0,50,50H163.32a50,50,0,0,0,50-50V50a50,50,0,0,0-50-50Z"/></g></g></g></svg>