<svg xmlns="http://www.w3.org/2000/svg" xmlns:xlink="http://www.w3.org/1999/xlink" viewBox="0 0 495.43 144.95"><defs><style>.cls-1{fill:#2e4057;}.cls-2{fill:url(#Dégradé_sans_nom_176);}</style><linearGradient id="Dégradé_sans_nom_176" x1="476.39" y1="102.59" x2="495.43" y2="102.59" gradientUnits="userSpaceOnUse"><stop offset="0" stop-color="#f0847f"/><stop offset="0.42" stop-color="#ec6272"/><stop offset="0.77" stop-color="#e94e6a"/><stop offset="1" stop-color="#e84667"/></linearGradient></defs><title>logo</title><g id="Calque_2" data-name="Calque 2"><g id="P1-Viewport1"><path class="cls-1" d="M73.83,145a5.56,5.56,0,0,1-4-1.5,5.36,5.36,0,0,1-1.57-4.07V99.3a.63.63,0,0,0-1.13-.39,34.94,34.94,0,0,1-11.29,9.26,36.36,36.36,0,0,1-17.28,4.07A37.5,37.5,0,0,1,5.07,92.82,40.57,40.57,0,0,1,0,72.54,40.05,40.05,0,0,1,5.21,52.12,38.51,38.51,0,0,1,19.42,37.91,39.77,39.77,0,0,1,39.7,32.7a39.51,39.51,0,0,1,20.06,5.14A38.25,38.25,0,0,1,73.9,51.91,41.14,41.14,0,0,1,79.4,72v67.41a5.36,5.36,0,0,1-1.57,4.07A5.56,5.56,0,0,1,73.83,145ZM39.7,102.25a28.41,28.41,0,0,0,14.78-3.86A28,28,0,0,0,64.76,87.75a30.7,30.7,0,0,0,3.79-15.21,30.62,30.62,0,0,0-3.79-15.28A28.58,28.58,0,0,0,54.48,46.63,28,28,0,0,0,39.7,42.7,28.09,28.09,0,0,0,25,46.63,29,29,0,0,0,14.57,57.26a30.15,30.15,0,0,0-3.86,15.28,30.23,30.23,0,0,0,3.86,15.21,28.25,28.25,0,0,0,25.13,14.5Z"/><path class="cls-1" d="M118.53,111.53a5.57,5.57,0,0,1-3.29-1,5.3,5.3,0,0,1-2-2.57L91,41.16a.19.19,0,0,1,0-.07q-.85-3.54.15-5.6c.66-1.38,2-2.07,4-2.07a5.56,5.56,0,0,1,3.28,1,6,6,0,0,1,2.14,3.14l19.58,59.85a.64.64,0,0,1-.61.84h-1.4a.64.64,0,0,1-.61-.82L135.66,37.7a6.67,6.67,0,0,1,1.93-3.07,5,5,0,0,1,3.5-1.21,5.26,5.26,0,0,1,3.5,1.14,6.3,6.3,0,0,1,1.93,3.14L163.84,96a.64.64,0,0,1-.61.82h-.7a.63.63,0,0,1-.6-.83l19.14-58.43q1.44-4.14,5.29-4.14,3.13,0,4.28,2.35a6.56,6.56,0,0,1,0,5.36L168.37,108a5.53,5.53,0,0,1-1.93,2.57,5.27,5.27,0,0,1-3.22,1,5.89,5.89,0,0,1-3.35-1,4.47,4.47,0,0,1-1.93-2.57L140.19,49.09a.64.64,0,0,1,.61-.82h0a.63.63,0,0,1,.61.82L123.67,108a4.9,4.9,0,0,1-2,2.64A5.66,5.66,0,0,1,118.53,111.53Z"/><path class="cls-1" d="M239.05,112.24a40.65,40.65,0,0,1-20.49-5.07,36.29,36.29,0,0,1-14-14.06,41.06,41.06,0,0,1-5.07-20.57,43,43,0,0,1,4.78-20.63,36.16,36.16,0,0,1,13.21-14.07,36.6,36.6,0,0,1,19.42-5.14,35.52,35.52,0,0,1,18.92,4.93,33.25,33.25,0,0,1,12.5,13.64,43.19,43.19,0,0,1,4.43,19.85,4.8,4.8,0,0,1-1.43,3.64,5.2,5.2,0,0,1-3.71,1.35H207.56a.64.64,0,0,1-.64-.63V67.61a.64.64,0,0,1,.64-.64h59.23a.64.64,0,0,1,.37,1.16l-3.54,2.55a.63.63,0,0,1-1-.52,32.32,32.32,0,0,0-3-13.61,24.48,24.48,0,0,0-8.93-10.28,24.9,24.9,0,0,0-13.78-3.71,26.27,26.27,0,0,0-14.28,3.85,25.73,25.73,0,0,0-9.49,10.64,34.45,34.45,0,0,0-3.36,15.49A30.92,30.92,0,0,0,213.56,88a27.94,27.94,0,0,0,10.36,10.56,29.33,29.33,0,0,0,15.13,3.86,31.59,31.59,0,0,0,10.36-1.79,25.07,25.07,0,0,0,8.35-4.49,5.84,5.84,0,0,1,3.57-1.36,5,5,0,0,1,3.43,1.07,5.29,5.29,0,0,1,1.93,3.71A4.12,4.12,0,0,1,265,103a38.72,38.72,0,0,1-12,6.64A41,41,0,0,1,239.05,112.24Z"/><path class="cls-1" d="M286.32,45.84a5,5,0,0,1-3.57-1.36,4.44,4.44,0,0,1-1.43-3.35,4.61,4.61,0,0,1,1.43-3.5,5,5,0,0,1,3.57-1.36h36.42a5,5,0,0,1,3.57,1.36,4.61,4.61,0,0,1,1.43,3.5,4.44,4.44,0,0,1-1.43,3.35,5,5,0,0,1-3.57,1.36Zm35.56,65.69A25.37,25.37,0,0,1,299,98.18,29,29,0,0,1,295.6,84V14.14a5.56,5.56,0,0,1,1.5-4A5.17,5.17,0,0,1,301,8.57a5.37,5.37,0,0,1,5.57,5.57V84a16.9,16.9,0,0,0,4.28,11.92,14.28,14.28,0,0,0,11,4.64h3.86a4.8,4.8,0,0,1,3.71,1.57,5.75,5.75,0,0,1,1.43,4,5,5,0,0,1-1.72,3.93,6.26,6.26,0,0,1-4.28,1.5Z"/><path class="cls-1" d="M365.58,111.53a17.43,17.43,0,0,1-10.21-3.14,20.64,20.64,0,0,1-7-8.71,31.09,31.09,0,0,1-2.5-12.86V5.42a5.31,5.31,0,0,1,1.5-3.92,5.89,5.89,0,0,1,7.85,0,5.31,5.31,0,0,1,1.5,3.92v81.4a18.05,18.05,0,0,0,2.5,10q2.5,3.86,6.36,3.86h3.57a4.27,4.27,0,0,1,3.42,1.5,5.81,5.81,0,0,1,1.29,3.92,4.89,4.89,0,0,1-1.79,3.93,7,7,0,0,1-4.64,1.5Z"/><path class="cls-1" d="M420.13,112.24a40.62,40.62,0,0,1-20.49-5.07,36.38,36.38,0,0,1-14-14.06,41.16,41.16,0,0,1-5.07-20.57,43,43,0,0,1,4.78-20.63,36.24,36.24,0,0,1,13.21-14.07A36.62,36.62,0,0,1,418,32.7a35.55,35.55,0,0,1,18.92,4.93A33.22,33.22,0,0,1,449.4,51.27a43.19,43.19,0,0,1,4.43,19.85,4.8,4.8,0,0,1-1.43,3.64,5.18,5.18,0,0,1-3.71,1.35H388.63a.63.63,0,0,1-.63-.63V67.61a.64.64,0,0,1,.63-.64h59.23a.64.64,0,0,1,.37,1.16l-3.53,2.55a.64.64,0,0,1-1-.52,32,32,0,0,0-3-13.61,24.46,24.46,0,0,0-8.92-10.28A24.93,24.93,0,0,0,418,42.56a26.27,26.27,0,0,0-14.28,3.85,25.68,25.68,0,0,0-9.5,10.64,34.45,34.45,0,0,0-3.36,15.49A30.82,30.82,0,0,0,394.64,88,27.91,27.91,0,0,0,405,98.53a29.37,29.37,0,0,0,15.14,3.86,31.58,31.58,0,0,0,10.35-1.79,25,25,0,0,0,8.35-4.49,5.84,5.84,0,0,1,3.57-1.36,5,5,0,0,1,3.43,1.07,5.29,5.29,0,0,1,1.93,3.71,4.11,4.11,0,0,1-1.64,3.43,38.67,38.67,0,0,1-12,6.64A41,41,0,0,1,420.13,112.24Z"/><rect class="cls-2" x="476.39" y="93.07" width="19.04" height="19.04" rx="2.72"/></g></g></svg>