<svg xmlns="http://www.w3.org/2000/svg" xmlns:xlink="http://www.w3.org/1999/xlink" viewBox="0 0 73.57 73.57"><defs><style>.cls-1{fill:url(#Dégradé_sans_nom_36);}.cls-2{fill:#fff;}</style><linearGradient id="Dégradé_sans_nom_36" x1="-2164.37" y1="6584.11" x2="-2096.8" y2="6584.11" gradientTransform="translate(-6547.32 -2093.8) rotate(-90)" gradientUnits="userSpaceOnUse"><stop offset="0" stop-color="#6fa2bb"/><stop offset="0.05" stop-color="#6898b1"/><stop offset="0.22" stop-color="#537890"/><stop offset="0.4" stop-color="#436077"/><stop offset="0.58" stop-color="#374e65"/><stop offset="0.78" stop-color="#30435a"/><stop offset="1" stop-color="#2e4057"/></linearGradient></defs><title>Fichier 6</title><g id="Calque_2" data-name="Calque 2"><g id="P1-Viewport2"><path class="cls-1" d="M36.7,70.57a8.83,8.83,0,0,1-6.32-2.64L5.59,43a8.92,8.92,0,0,1,0-12.61l25-24.79a8.92,8.92,0,0,1,12.61,0L68,30.58a8.92,8.92,0,0,1,0,12.61L43,68A8.86,8.86,0,0,1,36.7,70.57Z"/><path class="cls-2" d="M36.86,6h0a5.87,5.87,0,0,1,4.2,1.75L65.85,32.69a5.92,5.92,0,0,1,0,8.37L40.88,65.85a5.93,5.93,0,0,1-8.38,0L7.72,40.88a5.93,5.93,0,0,1,0-8.38L32.69,7.72A5.89,5.89,0,0,1,36.86,6m0-6a11.9,11.9,0,0,0-8.4,3.46L3.52,28.25A11.91,11.91,0,0,0,3.46,45.1L28.25,70.05a11.9,11.9,0,0,0,16.85,0L70.05,45.32a11.92,11.92,0,0,0,0-16.86L45.32,3.52A11.86,11.86,0,0,0,36.86,0Z"/></g></g></svg>