<svg xmlns="http://www.w3.org/2000/svg" viewBox="0 0 36.89 35.48"><defs><style>.cls-1{fill:#2e4057;}</style></defs><title>button-MAIL</title><g id="Calque_2" data-name="Calque 2"><g id="footer"><g id="button-MAIL"><path class="cls-1" d="M30.6,16.07c3.74-1.43,6.29-4.27,6.29-7.55C36.89,3.82,31.64,0,25.16,0S13.43,3.82,13.43,8.52a6.51,6.51,0,0,0,1,3.47,14.71,14.71,0,0,1,10,5l.73,0h.46C27,18,29.91,19.66,35.25,20A9.23,9.23,0,0,1,30.6,16.07Z"/><path class="cls-1" d="M25.16,22.84c0-5.26-5.63-9.52-12.58-9.52S0,17.58,0,22.84c0,3.92,3.14,7.29,7.61,8.75A7.85,7.85,0,0,1,4,35.48a12.72,12.72,0,0,0,8.91-3.13C19.69,32.23,25.16,28,25.16,22.84Z"/></g></g></g></svg>